<svg xmlns="http://www.w3.org/2000/svg" viewBox="0 0 900 600">
  <rect width="900" height="600" fill="#DE2910"/>
  <polygon points="225,150 260,240 355,240 285,300 320,390 225,330 130,390 165,300 95,240 190,240" fill="#FFDE00"/>
  <polygon points="675,150 710,240 805,240 735,300 770,390 675,330 580,390 615,300 545,240 640,240" fill="#FFDE00"/>
  <polygon points="450,50 485,140 580,140 510,200 545,290 450,230 355,290 390,200 320,140 415,140" fill="#FFDE00"/>
  <polygon points="225,450 260,540 355,540 285,600 320,690 225,630 130,690 165,600 95,540 190,540" fill="#FFDE00"/>
  <polygon points="675,450 710,540 805,540 735,600 770,690 675,630 580,690 615,600 545,540 640,540" fill="#FFDE00"/>
</svg>